<svg width="28" height="28" viewBox="0 0 28 28" fill="none" xmlns="http://www.w3.org/2000/svg">
<g clip-path="url(#clip0_2_8)">
<path d="M27.125 8.75L0.875046 8.75C0.392027 8.75 6.85448e-05 8.35797 6.85026e-05 7.87502C6.84604e-05 7.392 0.392099 7.00004 0.875045 7.00004L27.125 7.00004C27.608 7.00004 28 7.39207 28 7.87502C28 8.35797 27.608 8.75 27.125 8.75Z" fill="#CACED3"/>
<path d="M0.875045 14.0473L27.125 14.0473C27.608 14.0473 28 14.4393 28 14.9223C28 15.4052 27.608 15.7972 27.125 15.7972L0.875046 15.7972C0.392027 15.7972 6.85448e-05 15.4052 6.85026e-05 14.9223C6.84604e-05 14.4393 0.392027 14.0473 0.875045 14.0473Z" fill="#CACED3"/>
<path d="M0.875039 21.0945L18.375 21.0945C18.858 21.0945 19.25 21.4866 19.25 21.9695C19.25 22.4525 18.858 22.8445 18.375 22.8445L0.875039 22.8445C0.392021 22.8445 6.23013e-05 22.4525 6.2259e-05 21.9695C-1.02624e-05 21.4865 0.39202 21.0945 0.875039 21.0945Z" fill="#CACED3"/>
</g>
<defs>
<clipPath id="clip0_2_8">
<rect width="28" height="28" fill="white" transform="matrix(-1 8.74228e-08 8.74228e-08 1 28 0)"/>
</clipPath>
</defs>
</svg>
